<?xml version="1.0" encoding="UTF-8" standalone="no"?>
<!DOCTYPE svg PUBLIC "-//W3C//DTD SVG 1.1//EN" "http://www.w3.org/Graphics/SVG/1.1/DTD/svg11.dtd">
<svg width="100%" height="100%" viewBox="0 0 479 193" version="1.1" xmlns="http://www.w3.org/2000/svg" xmlns:xlink="http://www.w3.org/1999/xlink" xml:space="preserve" xmlns:serif="http://www.serif.com/" style="fill-rule:evenodd;clip-rule:evenodd;stroke-linejoin:round;stroke-miterlimit:2;">
    <g id="Artboard1" transform="matrix(0.69101,0,0,0.669749,-567.804,-436.009)">
        <rect x="821.701" y="651.004" width="691.805" height="287.365" style="fill:none;"/>
        <g transform="matrix(6.02982,0,0,6.22124,1187.2,814.784)">
            <path d="M0,-8.819L-2.657,-8.819L-2.749,-4.797L0.073,-4.797C1.254,-4.797 2.269,-5.35 2.269,-6.753C2.269,-8.155 1.438,-8.819 0,-8.819M0.405,-0.831L-0.867,-2.75L-2.73,-2.75L-2.62,1.807C-2.62,1.937 -2.73,2.047 -2.859,2.047L-5.313,2.047C-5.442,2.047 -5.553,1.937 -5.553,1.807L-5.405,-4.41L-5.553,-10.627C-5.553,-10.756 -5.442,-10.866 -5.313,-10.866L-0.111,-10.866C3.117,-10.866 4.98,-9.502 4.98,-6.808C4.98,-4.908 3.929,-3.598 2.103,-3.045L5.275,1.844C5.331,1.937 5.275,2.047 5.165,2.047L2.38,2.047C2.231,2.047 2.084,1.973 2.011,1.844L0.405,-0.831Z" style="fill:rgb(85,136,197);fill-rule:nonzero;"/>
        </g>
        <g transform="matrix(6.02982,0,0,6.22124,1251.37,778.4)">
            <path d="M0,6.291C1.365,6.291 2.011,5.35 2.011,3.173C2.011,1.033 1.347,0 -0.019,0C-1.421,0.019 -2.066,1.052 -2.066,3.191C-2.066,5.331 -1.384,6.291 0,6.291M0,8.136C-3.1,8.136 -4.889,6.198 -4.889,3.173C-4.889,0.147 -3.1,-1.845 0,-1.845C3.1,-1.845 4.852,0.092 4.852,3.117C4.852,6.143 3.1,8.136 0,8.136" style="fill:rgb(85,136,197);fill-rule:nonzero;"/>
        </g>
        <g transform="matrix(6.02982,0,0,6.22124,1316.89,758.892)">
            <path d="M0,9.334C1.402,9.371 2.122,8.282 2.122,6.364C2.122,4.279 1.384,3.209 0.056,3.228C-1.291,3.228 -2.011,4.224 -2.029,6.18C-2.047,8.209 -1.328,9.315 0,9.334M0.775,11.216C-0.405,11.216 -1.328,10.791 -1.974,10.017L-1.937,10.791C-1.918,10.921 -2.029,11.031 -2.158,11.031L-4.501,11.031C-4.63,11.031 -4.74,10.921 -4.74,10.791L-4.63,4.574L-4.74,-1.643C-4.74,-1.771 -4.63,-1.882 -4.501,-1.882L-2.14,-1.882C-2.011,-1.882 -1.899,-1.771 -1.899,-1.643L-1.955,2.619C-1.31,1.808 -0.351,1.346 0.83,1.346C3.524,1.346 4.944,3.486 4.944,6.253C4.944,9.002 3.357,11.216 0.775,11.216" style="fill:rgb(85,136,197);fill-rule:nonzero;"/>
        </g>
        <g transform="matrix(6.02982,0,0,6.22124,1382.41,778.4)">
            <path d="M0,6.291C1.365,6.291 2.011,5.35 2.011,3.173C2.011,1.033 1.347,0 -0.019,0C-1.421,0.019 -2.066,1.052 -2.066,3.191C-2.066,5.331 -1.384,6.291 0,6.291M0,8.136C-3.1,8.136 -4.889,6.198 -4.889,3.173C-4.889,0.147 -3.1,-1.845 0,-1.845C3.1,-1.845 4.852,0.092 4.852,3.117C4.852,6.143 3.1,8.136 0,8.136" style="fill:rgb(85,136,197);fill-rule:nonzero;"/>
        </g>
        <g transform="matrix(6.02982,0,0,6.22124,1451.93,757.389)">
            <path d="M0,10.849C0,10.996 -0.092,11.125 -0.221,11.162C-0.737,11.328 -1.328,11.457 -1.882,11.457C-3.486,11.457 -5.018,10.646 -5.018,8.488L-4.999,3.728L-5.995,3.728C-6.124,3.728 -6.235,3.617 -6.235,3.488L-6.235,2.012C-6.235,1.883 -6.124,1.772 -5.995,1.772L-5.018,1.772L-5.055,-0.368C-5.055,-0.497 -4.943,-0.608 -4.814,-0.608L-2.453,-0.608C-2.324,-0.608 -2.214,-0.497 -2.214,-0.368L-2.25,1.772L-0.221,1.772C-0.092,1.772 0.019,1.883 0.019,2.012L0.019,3.488C0.019,3.617 -0.092,3.728 -0.221,3.728L-2.269,3.728L-2.25,8.413C-2.25,9.225 -1.845,9.484 -1.235,9.484C-0.83,9.484 -0.498,9.41 -0.239,9.354C-0.11,9.318 0,9.41 0,9.52L0,10.849Z" style="fill:rgb(85,136,197);fill-rule:nonzero;"/>
        </g>
        <g transform="matrix(6.02982,0,0,6.22124,1486.08,767.042)">
            <path d="M0,9.943C-2.602,9.943 -4.612,8.854 -4.76,6.77C-4.76,6.64 -4.649,6.53 -4.52,6.53L-2.324,6.53C-2.177,6.53 -2.066,6.622 -2.048,6.77C-1.956,7.784 -1.273,8.227 0,8.227C1.088,8.227 1.679,7.802 1.679,7.065C1.679,5.256 -4.538,7.009 -4.538,3.025C-4.538,1.05 -2.952,0 -0.388,0C2.084,0 3.745,0.977 3.947,2.914C3.966,3.044 3.855,3.154 3.727,3.154L1.642,3.154C1.494,3.154 1.384,3.061 1.347,2.914C1.181,2.158 0.664,1.678 -0.425,1.678C-1.328,1.678 -1.9,2.01 -1.9,2.822C-1.9,4.63 4.316,2.785 4.316,6.825C4.316,8.817 2.435,9.943 0,9.943" style="fill:rgb(85,136,197);fill-rule:nonzero;"/>
        </g>
        <g transform="matrix(6.02982,0,0,6.22124,1046.82,838.725)">
            <path d="M0,-13.848L-3.605,-13.848L-8.653,0.004L-5.048,0.004L0,-13.848ZM-13.698,15.716C-13.923,15.716 -14.147,15.711 -14.371,15.705L-9.744,2.989L-3.377,2.989C-2.259,2.989 -1.032,2.13 -0.65,1.081L4.369,-12.707C5.191,-14.964 3.898,-16.811 1.496,-16.811L-7.338,-16.811L-14.75,3.555L-14.753,3.555L-18.954,15.101C-28.923,12.731 -36.338,3.77 -36.338,-6.924C-36.338,-17.309 -29.345,-26.061 -19.811,-28.728L-24.146,-16.811L-24.147,-16.811L-31.355,2.989L-26.557,2.99L-20.427,-13.836L-16.821,-13.836L-22.951,2.99L-18.155,2.991L-12.443,-12.707C-11.621,-14.964 -12.914,-16.811 -15.314,-16.811L-19.347,-16.811L-14.716,-29.54C-14.378,-29.555 -14.039,-29.564 -13.698,-29.564C-1.195,-29.564 8.941,-19.427 8.941,-6.924C8.941,5.579 -1.195,15.716 -13.698,15.716" style="fill:rgb(85,136,197);fill-rule:nonzero;"/>
        </g>
    </g>
</svg>
